<svg xmlns="http://www.w3.org/2000/svg" width="20.531" height="19.666" viewBox="0 0 20.531 19.666">
  <g id="Icon_feather-shopping-cart" data-name="Icon feather-shopping-cart" transform="translate(-0.75 -0.75)">
    <path id="Path_8" data-name="Path 8" d="M13.73,30.865A.865.865,0,1,1,12.865,30,.865.865,0,0,1,13.73,30.865Z" transform="translate(-4.445 -12.065)" fill="none" stroke="#121212" stroke-linecap="round" stroke-linejoin="round" stroke-width="1.5"/>
    <path id="Path_9" data-name="Path 9" d="M30.23,30.865A.865.865,0,1,1,29.365,30,.865.865,0,0,1,30.23,30.865Z" transform="translate(-11.43 -12.065)" fill="none" stroke="#121212" stroke-linecap="round" stroke-linejoin="round" stroke-width="1.5"/>
    <path id="Path_10" data-name="Path 10" d="M1.5,1.5H4.96L7.278,13.083a1.73,1.73,0,0,0,1.73,1.393h8.408a1.73,1.73,0,0,0,1.73-1.393l1.384-7.258H5.825" fill="none" stroke="#121212" stroke-linecap="round" stroke-linejoin="round" stroke-width="1.5"/>
  </g>
</svg>
