<svg xmlns="http://www.w3.org/2000/svg" width="19.184" height="19.219" viewBox="0 0 19.184 19.219">
  <path id="Icon_feather-phone-call" data-name="Icon feather-phone-call" d="M14.4,4.972A4.34,4.34,0,0,1,17.827,8.4M14.4,1.5a7.812,7.812,0,0,1,6.9,6.892m-.868,6.927v2.6a1.736,1.736,0,0,1-1.892,1.736,17.178,17.178,0,0,1-7.491-2.665A16.926,16.926,0,0,1,5.84,11.786,17.178,17.178,0,0,1,3.175,4.26,1.736,1.736,0,0,1,4.9,2.368h2.6A1.736,1.736,0,0,1,9.242,3.861,11.145,11.145,0,0,0,9.85,6.3a1.736,1.736,0,0,1-.391,1.831l-1.1,1.1a13.888,13.888,0,0,0,5.208,5.208l1.1-1.1a1.736,1.736,0,0,1,1.831-.391,11.145,11.145,0,0,0,2.439.608A1.736,1.736,0,0,1,20.431,15.318Z" transform="translate(-2.667 -0.948)" fill="none" stroke="#121212" stroke-linecap="round" stroke-linejoin="round" stroke-width="1"/>
</svg>
