<svg xmlns="http://www.w3.org/2000/svg" width="19" height="19" viewBox="0 0 19 19">
  <path id="Icon_simple-instagram" data-name="Icon simple-instagram" d="M9.5,0C6.919,0,6.6.012,5.584.057A7.005,7.005,0,0,0,3.277.5a4.652,4.652,0,0,0-1.683,1.1A4.635,4.635,0,0,0,.5,3.277,6.985,6.985,0,0,0,.057,5.584C.009,6.6,0,6.919,0,9.5s.012,2.9.057,3.916A7.009,7.009,0,0,0,.5,15.722a4.659,4.659,0,0,0,1.1,1.683,4.646,4.646,0,0,0,1.683,1.1,7.014,7.014,0,0,0,2.306.442C6.6,18.99,6.919,19,9.5,19s2.9-.012,3.916-.057a7.03,7.03,0,0,0,2.306-.442A4.855,4.855,0,0,0,18.5,15.722a7.009,7.009,0,0,0,.442-2.306C18.99,12.4,19,12.081,19,9.5s-.012-2.9-.057-3.916A7.026,7.026,0,0,0,18.5,3.277a4.663,4.663,0,0,0-1.1-1.683A4.629,4.629,0,0,0,15.722.5,6.989,6.989,0,0,0,13.416.057C12.4.009,12.081,0,9.5,0Zm0,1.71c2.536,0,2.838.013,3.84.056a5.234,5.234,0,0,1,1.763.329,3.126,3.126,0,0,1,1.8,1.8,5.245,5.245,0,0,1,.327,1.763c.045,1,.055,1.3.055,3.84s-.012,2.838-.059,3.84A5.346,5.346,0,0,1,16.9,15.1a3.016,3.016,0,0,1-.712,1.094,2.964,2.964,0,0,1-1.092.709,5.284,5.284,0,0,1-1.769.327c-1.009.045-1.305.055-3.847.055s-2.839-.012-3.847-.059a5.387,5.387,0,0,1-1.77-.333,2.942,2.942,0,0,1-1.092-.712,2.885,2.885,0,0,1-.712-1.092,5.391,5.391,0,0,1-.332-1.769c-.036-1-.048-1.305-.048-3.835s.013-2.839.048-3.848a5.385,5.385,0,0,1,.332-1.769,2.816,2.816,0,0,1,.712-1.093,2.81,2.81,0,0,1,1.092-.711,5.258,5.258,0,0,1,1.758-.333c1.009-.036,1.306-.047,3.847-.047L9.5,1.71Zm0,2.912A4.878,4.878,0,1,0,14.378,9.5,4.878,4.878,0,0,0,9.5,4.622Zm0,8.045A3.167,3.167,0,1,1,12.667,9.5,3.166,3.166,0,0,1,9.5,12.667Zm6.211-8.237a1.14,1.14,0,1,1-1.14-1.139A1.141,1.141,0,0,1,15.711,4.429Z" fill="#fff"/>
</svg>
